<?xml version="1.0" encoding="utf-8"?>
<!-- Generator: Adobe Illustrator 23.0.1, SVG Export Plug-In . SVG Version: 6.00 Build 0)  -->
<svg version="1.1" id="Layer_1" xmlns="http://www.w3.org/2000/svg" xmlns:xlink="http://www.w3.org/1999/xlink" x="0px" y="0px"
	 viewBox="0 0 512 512" style="enable-background:new 0 0 512 512;" xml:space="preserve">
<style type="text/css">
	.st0{fill:#010101;}
</style>
<title>01</title>
<g>
	<path class="st0" d="M256.8,140.5c-65.5,0-118.6,53.1-118.6,118.6s53.1,118.6,118.6,118.6s118.6-53.1,118.6-118.6
		C375.4,193.6,322.3,140.5,256.8,140.5z M256.8,335.1c-42,0-76-34-76-76s34-76,76-76s76,34,76,76
		C332.8,301.1,298.8,335.1,256.8,335.1z"/>
	<path class="st0" d="M382.4,104.2C382.4,104.2,382.4,104.2,382.4,104.2c-15.6,0-28.2,12.7-28.2,28.2c0,15.6,12.7,28.2,28.2,28.2
		c15.6,0,28.2-12.6,28.2-28.2C410.6,116.9,398,104.2,382.4,104.2z"/>
	<path class="st0" d="M351.5,15.8C351.5,15.8,351.5,15.8,351.5,15.8h-191c-79.9,0-144.7,64.8-144.7,144.7c0,0,0,0,0,0v191
		c0,79.9,64.8,144.7,144.7,144.7c0,0,0,0,0,0h191c79.9,0,144.7-64.8,144.7-144.7c0,0,0,0,0,0v-191C496.2,80.6,431.4,15.8,351.5,15.8
		z M450.9,351.5c0,54.9-44.5,99.4-99.4,99.4h-191c-54.9,0-99.4-44.5-99.4-99.4v-191c0-54.9,44.5-99.4,99.4-99.4h191
		c54.9,0,99.4,44.5,99.4,99.4V351.5z"/>
</g>
</svg>
