<?xml version="1.0" encoding="utf-8"?>
<!-- Generator: Adobe Illustrator 22.1.0, SVG Export Plug-In . SVG Version: 6.00 Build 0)  -->
<svg version="1.1" id="Layer_1" xmlns="http://www.w3.org/2000/svg" xmlns:xlink="http://www.w3.org/1999/xlink" x="0px" y="0px"
	 viewBox="0 0 512 512" style="enable-background:new 0 0 512 512;" xml:space="preserve">
<g>
	<path d="M191.7,175.6h88.9v45.6h1.3c12.4-22.2,42.7-45.6,87.8-45.6c93.9,0,111.2,58.4,111.2,134.5v154.8h-92.7V327.7
		c0-32.7-0.7-74.9-48.2-74.9c-48.3,0-55.7,35.6-55.7,72.5v139.6h-92.7C191.7,464.9,191.7,175.6,191.7,175.6z"/>
	<path d="M31,175.6h96.4v289.3H31V175.6z"/>
	<path d="M127.4,95.3c0,26.6-21.6,48.2-48.2,48.2S31,121.9,31,95.3s21.6-48.2,48.2-48.2S127.4,68.7,127.4,95.3z"/>
</g>
</svg>
